<svg version="1.1" xmlns="http://www.w3.org/2000/svg" xmlns:xlink="http://www.w3.org/1999/xlink" width="32.4684" height="28.06211" viewBox="0,0,32.4684,28.06211"><g transform="translate(-226.4405,-166.95238)"><g data-paper-data="{&quot;isPaintingLayer&quot;:true}" fill-rule="nonzero" stroke="none" stroke-linecap="butt" stroke-linejoin="miter" stroke-miterlimit="10" stroke-dasharray="" stroke-dashoffset="0" style="mix-blend-mode: normal"><text transform="translate(226.50004,187.81076) scale(0.11907,0.11907)" font-size="40" xml:space="preserve" fill="#000000" fill-rule="nonzero" stroke="none" stroke-width="1" stroke-linecap="butt" stroke-linejoin="miter" stroke-miterlimit="10" stroke-dasharray="" stroke-dashoffset="0" font-family="Sans Serif" font-weight="normal" text-anchor="start" style="mix-blend-mode: normal"><tspan x="0" dy="0">Switch to</tspan><tspan x="0" dy="48px">Black @ White</tspan></text><path d="M231.73684,167.45238c1.79493,0 3.25,3.05006 3.25,6.8125c0,3.76244 -1.45507,6.8125 -3.25,6.8125c-1.79493,0 -3.25,-3.05006 -3.25,-6.8125c0,-3.76244 1.45507,-6.8125 3.25,-6.8125z" fill="#c7c7c7" stroke-width="0"/><path d="M237.7299,166.95238c2.04422,0 3.70139,3.24594 3.70139,7.25c0,4.00406 -1.65717,7.25 -3.70139,7.25c-2.04422,0 -3.70139,-3.24594 -3.70139,-7.25c0,-4.00406 1.65717,-7.25 3.70139,-7.25z" fill="#737373" stroke-width="0"/><path d="M243.20212,167.32738c1.74506,0 3.15972,3.13401 3.15972,7c0,3.86599 -1.41465,7 -3.15972,7c-1.74506,0 -3.15972,-3.13401 -3.15972,-7c0,-3.86599 1.41465,-7 3.15972,-7z" fill="#000000" stroke-width="0"/></g></g></svg>