<svg version="1.1" xmlns="http://www.w3.org/2000/svg" xmlns:xlink="http://www.w3.org/1999/xlink" width="36.50767" height="22.35743" viewBox="0,0,36.50767,22.35743"><g transform="translate(-221.19051,-167.06671)"><g data-paper-data="{&quot;isPaintingLayer&quot;:true}" fill-rule="nonzero" stroke="none" stroke-linecap="butt" stroke-linejoin="miter" stroke-miterlimit="10" stroke-dasharray="" stroke-dashoffset="0" style="mix-blend-mode: normal"><text transform="translate(221.25005,187.93577) scale(0.11907,0.11907)" font-size="40" xml:space="preserve" fill="#000000" fill-rule="nonzero" stroke="none" stroke-width="1" stroke-linecap="butt" stroke-linejoin="miter" stroke-miterlimit="10" stroke-dasharray="" stroke-dashoffset="0" font-family="Sans Serif" font-weight="normal" text-anchor="start" style="mix-blend-mode: normal"><tspan x="0" dy="0">Delete Drawing</tspan></text><path d="M243.86441,175.34919c-0.20801,0.13868 -0.34669,-0.06934 -0.34669,-0.06934l-0.20744,-0.32626c-0.5543,-0.26332 -1.3493,-0.95084 -1.33326,-1.52223c-0.81965,-0.49662 -0.25856,-2.70055 -0.24461,-3.34763l0.1447,-0.30436c0,0 0.11181,-0.22361 0.33541,-0.1118c0.2236,0.11181 0.11181,0.33541 0.11181,0.33541l-0.10529,0.19564c0.0142,0.4591 -0.51923,2.56456 0.04673,2.82079c0.1354,0.0613 0.47512,-0.74771 0.52346,-0.79472c0.56886,-0.55322 1.56499,-0.55294 2.24477,-0.94944c0.19059,-0.00305 0.37251,-0.00298 0.54658,0.00029c-0.04831,-0.19615 -0.11347,-0.37018 -0.19946,-0.51489c-0.51134,-0.86061 -1.55395,-0.95726 -1.9832,-1.72329c-1.52395,-1.49289 -3.43852,-1.71771 -5.23208,-1.30937c0.00608,0.00758 0.01206,0.01574 0.01791,0.02452c0.13868,0.20801 -0.06934,0.34669 -0.06934,0.34669c-0.3106,0.19799 -1.45995,0.30521 -1.61749,0.49479c-0.72897,0.87718 -2.01256,2.76691 -3.0944,3.22397c-1.10766,2.4556 -2.17406,4.42681 -0.83262,6.95292c2.05321,3.4368 3.55067,2.34044 6.99617,2.24771c2.86894,-0.83584 5.90968,-1.58846 5.90968,-5.00242c0,-1.00786 0.3324,-2.91005 0.18931,-4.24195c-0.15814,-0.00782 -0.32376,-0.01348 -0.49758,-0.01712c-0.18312,0.1134 -1.97802,1.18 -2.69159,1.59332c0.00884,0.0818 -0.02653,0.15255 -0.02653,0.15255c-0.07051,0.03742 0.85202,0.8986 1.19184,1.07578l0.29256,0.42374c0,0 0.13868,0.20801 -0.06934,0.34669zM251.15252,174.21441c0,0 0.17677,0.17678 0,0.35355c-0.17677,0.17677 -0.35356,0 -0.35356,0c-1.82002,-1.82002 -2.44545,-2.56521 -4.64508,-2.76048c0.1213,1.36945 -0.17814,3.1316 -0.17814,4.2087c0,3.6838 -3.24164,4.62738 -6.34032,5.49759c-0.98504,-0.03534 -4.33349,1.39219 -5.23173,0.28127c-0.55606,-0.68771 -1.66723,-1.77923 -2.2721,-2.78356c-1.26045,-2.76841 -0.50908,-4.89692 0.91737,-7.54708c1.06922,-0.58329 1.86367,-1.87423 2.7164,-2.82684c-0.07525,0.01421 -0.19196,0.00796 -0.26323,-0.13458c-0.11181,-0.2236 0.11181,-0.33541 0.11181,-0.33541l0.24961,-0.12481c2.46419,-1.23904 5.6861,-1.58896 7.94001,0.70223c0.29199,0.70396 1.54797,0.93134 2.0168,1.77671c0.12186,0.21973 0.20656,0.48216 0.26325,0.77361c2.36268,0.14613 3.17041,1.02058 5.06892,2.91908z" fill="#000000" stroke-width="0.5"/><path d="M243.81527,175.33995c0.20802,-0.13868 0.06882,-0.34329 0.06882,-0.34329l-0.29287,-0.41974c-0.33982,-0.17718 -1.26091,-1.0245 -1.1904,-1.06192c0,0 0.03585,-0.06895 0.02701,-0.15075c0.71357,-0.41332 2.51037,-1.47452 2.69349,-1.58792c0.17382,0.00364 0.43227,-0.02787 0.59041,-0.02005c0.14309,1.3319 -0.18739,3.2638 -0.18739,4.27166c0,3.41396 -3.08374,4.20448 -5.95268,5.04032c-3.4455,0.09273 -4.98953,1.16804 -7.04274,-2.26876c-1.34144,-2.52611 -0.27918,-4.54748 0.82848,-7.00308c1.08184,-0.45706 2.39198,-2.37169 3.12095,-3.24887c0.15754,-0.18958 1.31989,-0.30007 1.63049,-0.49806c0,0 0.20882,-0.13876 0.07014,-0.34677c-0.00585,-0.00878 -0.01194,-0.01693 -0.01802,-0.02451c1.79356,-0.40834 3.74547,-0.1718 5.26942,1.32109c0.42925,0.76603 1.48313,0.87645 1.99447,1.73706c0.08599,0.14471 0.15281,0.32202 0.20112,0.51817c-0.17407,-0.00327 -0.44603,0.04014 -0.63662,0.04319c-0.67978,0.3965 -1.58742,0.34967 -2.15628,0.90289c-0.04834,0.04701 -0.47829,0.89872 -0.61369,0.83742c-0.56596,-0.25623 -0.01756,-2.34144 -0.03176,-2.80054l0.10557,-0.19541c0,0 0.11382,-0.22207 -0.10978,-0.33388c-0.2236,-0.11181 -0.33387,0.11286 -0.33387,0.11286l-0.08919,0.22118c-0.01395,0.64708 -0.55519,2.87776 0.26446,3.37438c-0.01604,0.57139 0.7808,1.27971 1.3351,1.54303l0.20696,0.32935c0,0 0.04039,0.18961 0.2484,0.05093z" data-paper-data="{&quot;noHover&quot;:false,&quot;origItem&quot;:[&quot;Path&quot;,{&quot;applyMatrix&quot;:true,&quot;segments&quot;:[[[243.86441,175.34919],[0,0],[-0.20801,0.13868]],[243.51772,175.27985],[[243.31028,174.95359],[0,0],[-0.5543,-0.26332]],[[241.97702,173.43136],[-0.01604,0.57139],[-0.81965,-0.49662]],[[241.73241,170.08373],[-0.01395,0.64708],[0,0]],[241.87711,169.77937],[[242.21252,169.66757],[-0.2236,-0.11181],[0.2236,0.11181]],[242.32433,170.00298],[[242.21904,170.19862],[0,0],[0.0142,0.4591]],[[242.26577,173.01941],[-0.56596,-0.25623],[0.1354,0.0613]],[[242.78923,172.22469],[-0.04834,0.04701],[0.56886,-0.55322]],[[245.034,171.27525],[-0.67978,0.3965],[0.19059,-0.00305]],[[245.58058,171.27554],[-0.17407,-0.00327],[-0.04831,-0.19615]],[[245.38112,170.76065],[0.08599,0.14471],[-0.51134,-0.86061]],[[243.39792,169.03736],[0.42925,0.76603],[-1.52395,-1.49289]],[[238.16584,167.72798],[1.79356,-0.40834],[0.00608,0.00758]],[[238.18375,167.75251],[-0.00585,-0.00878],[0.13868,0.20801]],[[238.11441,168.0992],[0,0],[-0.3106,0.19799]],[[236.49692,168.59399],[0.15754,-0.18958],[-0.72897,0.87718]],[[233.40252,171.81796],[1.08184,-0.45706],[-1.10766,2.4556]],[[232.5699,178.77088],[-1.34144,-2.52611],[2.05321,3.4368]],[[239.56607,181.01859],[-3.4455,0.09273],[2.86894,-0.83584]],[[245.47575,176.01617],[0,3.41396],[0,-1.00786]],[[245.66506,171.77422],[0.14309,1.3319],[-0.15814,-0.00782]],[[245.16748,171.7571],[0.17382,0.00364],[-0.18312,0.1134]],[[242.47589,173.35042],[0.71357,-0.41332],[0.00884,0.0818]],[[242.44936,173.50297],[0,0],[-0.07051,0.03742]],[[243.6412,174.57875],[-0.33982,-0.17718],[0,0]],[243.93376,175.00249],[[243.86442,175.34918],[0.20802,-0.13868],[0,0]]],&quot;closed&quot;:true,&quot;fillColor&quot;:[0,0,0,1]}]}" fill="#ffffff" stroke-width="0.5"/><path d="M257.35963,178.65655c-0.19088,0.16144 -0.35233,-0.02944 -0.35233,-0.02944l-0.18674,-0.23028c-0.41015,-0.78763 -0.90116,-2.04449 -1.51677,-3.22218c-1.00707,1.13252 -2.0721,2.19445 -2.62622,2.90159c-0.24178,0.47112 -0.53932,0.83488 -0.86994,1.24672l-0.0395,0.04921c0,0 -0.15651,0.19496 -0.35146,0.03845c-0.19495,-0.15651 -0.03845,-0.35146 -0.03845,-0.35146l0.0395,-0.04921c0.32132,-0.40025 0.60376,-0.74479 0.83838,-1.20272c0.53549,-0.68968 1.72572,-1.86201 2.80392,-3.08183c-0.70937,-1.2563 -1.5746,-2.33342 -2.65295,-2.51315c0,0 -0.24659,-0.0411 -0.20549,-0.2877c0.0411,-0.2466 0.28769,-0.2055 0.28769,-0.2055c1.20622,0.20103 2.14365,1.31499 2.90484,2.62214c0.99496,-1.16483 1.81606,-2.3314 1.80406,-3.12554c0,0 0,-0.25 0.25,-0.25c0.25,0 0.25,0.25 0.25,0.25c-0.01173,0.97722 -0.95746,2.29793 -2.05469,3.5712c0.65269,1.21119 1.17016,2.51414 1.62055,3.37903l0.12502,0.13833c0,0 0.16144,0.19088 -0.02944,0.35233z" fill="#004fff" stroke-width="0.5"/><path d="M233.82328,178.34733c-0.00666,-0.24991 0.24325,-0.25658 0.24325,-0.25658l0.08596,0.00364c0.64599,-0.16124 1.69065,-0.36001 2.13721,-0.82207c2.10716,-1.40477 1.62418,-4.90966 -1.34151,-4.80666c0,0 -0.25,0 -0.25,-0.25c0,-0.25 0.25,-0.25 0.25,-0.25c3.32513,0.07233 4.25075,3.96517 1.6585,5.69334c-0.518,0.50353 -1.61611,0.74098 -2.33293,0.92047l-0.1939,0.01111c0,0 -0.24991,0.00666 -0.25657,-0.24325z" fill="#004fff" stroke-width="0.5"/><path d="M234.61913,175.07784c-0.23717,-0.07906 -0.15812,-0.31623 -0.15812,-0.31623l0.1154,-0.33599c-0.00283,-0.40335 -0.00323,-0.8066 -0.00323,-1.20995c0,0 0,-0.25 0.25,-0.25c0.25,0 0.25,0.25 0.25,0.25c0,0.43005 -0.00065,0.86 -0.00322,1.29005l-0.13461,0.41401c0,0 -0.07905,0.23717 -0.31622,0.15811z" fill="#004fff" stroke-width="0.5"/><path d="M236.44819,174.71566c-0.25,0 -0.25,-0.25 -0.25,-0.25v-0.375c0,-0.24135 0.11471,-0.35154 -0.1118,-0.40139c0,0 -0.22361,-0.11181 -0.11181,-0.33541c0.11181,-0.2236 0.33541,-0.11181 0.33541,-0.11181c0.437,0.2705 0.38819,0.36504 0.38819,0.84861v0.375c0,0 0,0.25 -0.25,0.25z" fill="#004fff" stroke-width="0.5"/></g></g></svg>