<svg version="1.1" xmlns="http://www.w3.org/2000/svg" xmlns:xlink="http://www.w3.org/1999/xlink" width="26.66557" height="22.23242" viewBox="0,0,26.66557,22.23242"><g transform="translate(-224.5655,-167.06671)"><g data-paper-data="{&quot;isPaintingLayer&quot;:true}" fill-rule="nonzero" stroke="none" stroke-linecap="butt" stroke-linejoin="miter" stroke-miterlimit="10" stroke-dasharray="" stroke-dashoffset="0" style="mix-blend-mode: normal"><text transform="translate(224.62504,187.81076) scale(0.11907,0.11907)" font-size="40" xml:space="preserve" fill="#000000" fill-rule="nonzero" stroke="none" stroke-width="1" stroke-linecap="butt" stroke-linejoin="miter" stroke-miterlimit="10" stroke-dasharray="" stroke-dashoffset="0" font-family="Sans Serif" font-weight="normal" text-anchor="start" style="mix-blend-mode: normal"><tspan x="0" dy="0">Apply Color</tspan></text><path d="M238.04934,167.70238c3.55534,0 6.4375,3.05006 6.4375,6.8125c0,3.76244 -2.88216,6.8125 -6.4375,6.8125c-3.55534,0 -6.4375,-3.05006 -6.4375,-6.8125c0,-3.76244 2.88216,-6.8125 6.4375,-6.8125z" fill="#004fff" stroke-width="0"/><path d="M243.8644,175.34918c-0.20801,0.13868 -0.34669,-0.06934 -0.34669,-0.06934l-0.20744,-0.32626c-0.5543,-0.26332 -1.3493,-0.95084 -1.33326,-1.52223c-0.81965,-0.49662 -0.25856,-2.70055 -0.24461,-3.34763l0.1447,-0.30436c0,0 0.11181,-0.22361 0.33541,-0.1118c0.2236,0.11181 0.11181,0.33541 0.11181,0.33541l-0.10529,0.19564c0.0142,0.4591 -0.51923,2.56456 0.04673,2.82079c0.1354,0.0613 0.47512,-0.74771 0.52346,-0.79472c0.56886,-0.55322 1.56499,-0.55294 2.24477,-0.94944c0.19059,-0.00305 0.37251,-0.00298 0.54658,0.00029c-0.04831,-0.19615 -0.11347,-0.37018 -0.19946,-0.51489c-0.51134,-0.86061 -1.55395,-0.95726 -1.9832,-1.72329c-1.52395,-1.49289 -3.43852,-1.71771 -5.23208,-1.30937c0.00608,0.00758 0.01206,0.01574 0.01791,0.02452c0.13868,0.20801 -0.06934,0.34669 -0.06934,0.34669c-0.3106,0.19799 -1.45995,0.30521 -1.61749,0.49479c-0.72897,0.87718 -2.01256,2.76691 -3.0944,3.22397c-1.10766,2.4556 -2.17406,4.42681 -0.83262,6.95292c2.05321,3.4368 3.55067,2.34044 6.99617,2.24771c2.86894,-0.83584 5.90968,-1.58846 5.90968,-5.00242c0,-1.00786 0.3324,-2.91005 0.18931,-4.24195c-0.15814,-0.00782 -0.32376,-0.01348 -0.49758,-0.01712c-0.18312,0.1134 -1.97802,1.18 -2.69159,1.59332c0.00884,0.0818 -0.02653,0.15255 -0.02653,0.15255c-0.07051,0.03742 0.85202,0.8986 1.19184,1.07578l0.29256,0.42374c0,0 0.13868,0.20801 -0.06934,0.34669zM251.15251,174.2144c0,0 0.17677,0.17678 0,0.35355c-0.17677,0.17677 -0.35356,0 -0.35356,0c-1.82002,-1.82002 -2.44545,-2.56521 -4.64508,-2.76048c0.1213,1.36945 -0.17814,3.1316 -0.17814,4.2087c0,3.6838 -3.24164,4.62738 -6.34032,5.49759c-0.98504,-0.03534 -4.33349,1.39219 -5.23173,0.28127c-0.55606,-0.68771 -1.66723,-1.77923 -2.2721,-2.78356c-1.26045,-2.76841 -0.50908,-4.89692 0.91737,-7.54708c1.06922,-0.58329 1.86367,-1.87423 2.7164,-2.82684c-0.07525,0.01421 -0.19196,0.00796 -0.26323,-0.13458c-0.11181,-0.2236 0.11181,-0.33541 0.11181,-0.33541l0.24961,-0.12481c2.46419,-1.23904 5.6861,-1.58896 7.94001,0.70223c0.29199,0.70396 1.54797,0.93134 2.0168,1.77671c0.12186,0.21973 0.20656,0.48216 0.26325,0.77361c2.36268,0.14613 3.17041,1.02058 5.06892,2.91908z" fill="#000000" stroke-width="0.5"/></g></g></svg>