<svg version="1.1" xmlns="http://www.w3.org/2000/svg" xmlns:xlink="http://www.w3.org/1999/xlink" width="26.56519" height="28.0623" viewBox="0,0,26.56519,28.0623"><g transform="translate(-226.4405,-166.95238)"><g data-paper-data="{&quot;isPaintingLayer&quot;:true}" fill-rule="nonzero" stroke="none" stroke-linecap="butt" stroke-linejoin="miter" stroke-miterlimit="10" stroke-dasharray="" stroke-dashoffset="0" style="mix-blend-mode: normal"><text transform="translate(226.50004,187.81076) scale(0.11907,0.11907)" font-size="40" xml:space="preserve" fill="#000000" fill-rule="nonzero" stroke="none" stroke-width="1" stroke-linecap="butt" stroke-linejoin="miter" stroke-miterlimit="10" stroke-dasharray="" stroke-dashoffset="0" font-family="Sans Serif" font-weight="normal" text-anchor="start" style="mix-blend-mode: normal"><tspan x="0" dy="0">Switch to</tspan><tspan x="0" dy="48px">Color Mode</tspan></text><path d="M228.48684,174.26488c0,3.76244 1.45507,6.8125 3.25,6.8125c1.79493,0 3.25,-3.05006 3.25,-6.8125c0,-3.76244 -1.45507,-6.8125 -3.25,-6.8125c-1.79493,0 -3.25,3.05006 -3.25,6.8125z" fill="#ff0000" stroke-width="0"/><path d="M233.90351,174.20238c0,4.00406 1.65717,7.25 3.70139,7.25c2.04422,0 3.70139,-3.24594 3.70139,-7.25c0,-4.00406 -1.65717,-7.25 -3.70139,-7.25c-2.04422,0 -3.70139,3.24594 -3.70139,7.25z" fill="#00ff15" stroke-width="0"/><path d="M240.0424,174.32738c0,3.86599 1.41466,7 3.15972,7c1.74507,0 3.15972,-3.13401 3.15972,-7c0,-3.86599 -1.41466,-7 -3.15972,-7c-1.74507,0 -3.15972,3.13401 -3.15972,7z" fill="#004fff" stroke-width="0"/></g></g></svg>