<svg version="1.1" xmlns="http://www.w3.org/2000/svg" xmlns:xlink="http://www.w3.org/1999/xlink" width="34.8575" height="31.85472" viewBox="0,0,34.8575,31.85472"><g transform="translate(-220.66899,-159.40333)"><g data-paper-data="{&quot;isPaintingLayer&quot;:true}" fill-rule="nonzero" stroke-linejoin="miter" stroke-miterlimit="10" stroke-dasharray="" stroke-dashoffset="0" style="mix-blend-mode: normal"><text transform="translate(220.75002,189.23256) scale(0.16204,0.16204)" font-size="40" xml:space="preserve" fill="#000000" fill-rule="nonzero" stroke="none" stroke-width="1" stroke-linecap="butt" stroke-linejoin="miter" stroke-miterlimit="10" stroke-dasharray="" stroke-dashoffset="0" font-family="Sans Serif" font-weight="normal" text-anchor="start" style="mix-blend-mode: normal"><tspan x="0" dy="0">Pre-fill Tool</tspan></text><path d="M229.11176,170.52834c0,5.72995 4.50513,10.375 10.0625,10.375c5.55737,0 10.0625,-4.64505 10.0625,-10.375c0,-5.72995 -4.50513,-10.375 -10.0625,-10.375c-5.55737,0 -10.0625,4.64505 -10.0625,10.375z" fill="#a30000" stroke="#000000" stroke-width="1.5" stroke-linecap="butt"/><path d="M235.11176,162.15334l3.625,6.375" fill="none" stroke="#ffffff" stroke-width="0.5" stroke-linecap="round"/><path d="M237.11176,162.40334l2.375,5.125" fill="none" stroke="#ffffff" stroke-width="0.5" stroke-linecap="round"/><path d="M239.36176,161.40334l1.125,5.25" fill="none" stroke="#ffffff" stroke-width="0.5" stroke-linecap="round"/><path d="M231.61176,165.02834l5.5,4.25l-4,-6.125" fill="none" stroke="#ffffff" stroke-width="0.5" stroke-linecap="round"/><path d="M230.23676,167.02834l7,3.375" fill="none" stroke="#ffffff" stroke-width="0.5" stroke-linecap="round"/><path d="M229.73676,168.27834l7.75,2.875" fill="none" stroke="#ffffff" stroke-width="0.5" stroke-linecap="round"/><path d="M231.36176,171.52834l6.75,0.25" fill="none" stroke="#ffffff" stroke-width="0.5" stroke-linecap="round"/><path d="M232.86176,173.77834l5.125,-1" fill="none" stroke="#ffffff" stroke-width="0.5" stroke-linecap="round"/></g></g></svg>